<?xml version="1.0" encoding="utf-8"?>
<!-- Generator: Adobe Illustrator 18.0.0, SVG Export Plug-In . SVG Version: 6.00 Build 0)  -->
<!DOCTYPE svg PUBLIC "-//W3C//DTD SVG 1.1//EN" "http://www.w3.org/Graphics/SVG/1.1/DTD/svg11.dtd">
<svg version="1.1" id="Layer_1" xmlns="http://www.w3.org/2000/svg" xmlns:xlink="http://www.w3.org/1999/xlink" x="0px" y="0px"
	 viewBox="22.2 213.9 595.9 52.2" enable-background="new 22.2 213.9 595.9 52.2" xml:space="preserve">
<g>
	<g>
		<path fill="#606060" d="M94.7,240l-14.5-26.1H27.8c-3.1,0-5.6,2.5-5.6,5.6v41c0,3.1,2.5,5.6,5.6,5.6h52.4L94.7,240z"/>
		<path fill="#BB0E3D" d="M93.3,216.6c-1-1.7-2.9-2.7-4.8-2.7h-4.3L98.8,240l-14.7,26.1h4.3c2,0,3.8-1,4.8-2.7l13.1-23.4L93.3,216.6
			z"/>
	</g>
	<g>
		<rect x="53.2" y="228.4" fill="#FFFFFF" width="3.9" height="23.2"/>
		<polygon fill="#FFFFFF" points="45.4,228.4 45.4,245.4 34.8,228.4 30.9,228.4 30.9,251.6 34.8,251.6 34.8,234.6 45.4,251.6 
			49.3,251.6 49.3,228.4 		"/>
		<polygon fill="#FFFFFF" points="75.4,228.4 75.4,238.1 64.8,238.1 64.8,228.4 60.9,228.4 60.9,251.6 64.8,251.6 64.8,241.9 
			75.4,241.9 75.4,251.6 79.3,251.6 79.3,228.4 		"/>
	</g>
</g>
<g>
	<g>
		<path fill="#BB0E3D" d="M126.5,221.6h2.4v10.8h-2.4l-5.2-6.8v6.8h-2.4v-10.8h2.3l5.3,7V221.6z"/>
		<path fill="#BB0E3D" d="M139.3,232.4l-1-2.3h-4.5l-1,2.3h-2.6l4.7-10.8h2.3l4.7,10.8L139.3,232.4L139.3,232.4z M136,224.8
			l-1.4,3.1h2.7L136,224.8z"/>
		<path fill="#BB0E3D" d="M146.9,223.7v8.7h-2.4v-8.7h-3.1v-2.1h8.5v2.1H146.9z"/>
		<path fill="#BB0E3D" d="M151.7,221.6h2.4v10.8h-2.4V221.6z"/>
		<path fill="#BB0E3D" d="M165.9,231c-1.1,1.1-2.4,1.6-4,1.6c-1.6,0-2.9-0.5-4-1.6c-1.1-1.1-1.6-2.4-1.6-4s0.5-2.9,1.6-4
			c1.1-1.1,2.4-1.6,4-1.6c1.6,0,2.9,0.5,4,1.6c1.1,1.1,1.6,2.4,1.6,4S167,229.9,165.9,231z M165.1,227c0-1-0.3-1.8-0.9-2.5
			c-0.6-0.7-1.4-1-2.3-1c-0.9,0-1.7,0.3-2.3,1s-0.9,1.5-0.9,2.5c0,1,0.3,1.8,0.9,2.5c0.6,0.7,1.4,1,2.3,1s1.7-0.3,2.3-1
			C164.8,228.8,165.1,227.9,165.1,227z"/>
		<path fill="#BB0E3D" d="M177.1,221.6h2.4v10.8h-2.4l-5.2-6.8v6.8h-2.4v-10.8h2.3l5.3,7V221.6z"/>
		<path fill="#BB0E3D" d="M189.9,232.4l-1-2.3h-4.5l-1,2.3h-2.6l4.7-10.8h2.3l4.7,10.8L189.9,232.4L189.9,232.4z M186.6,224.8
			l-1.4,3.1h2.7L186.6,224.8z"/>
		<path fill="#BB0E3D" d="M193.7,232.4v-10.8h2.4v8.7h4.6v2.2L193.7,232.4L193.7,232.4z"/>
		<path fill="#BB0E3D" d="M211.6,230.3c1.2,0,2.2-0.5,2.9-1.4l1.5,1.6c-1.2,1.4-2.7,2.1-4.3,2.1c-1.7,0-3-0.5-4.1-1.6
			c-1.1-1.1-1.6-2.4-1.6-4c0-1.6,0.5-2.9,1.6-4c1.1-1.1,2.4-1.6,4-1.6c1.8,0,3.3,0.7,4.5,2l-1.5,1.7c-0.8-0.9-1.7-1.4-2.8-1.4
			c-0.9,0-1.7,0.3-2.3,0.9c-0.6,0.6-1,1.4-1,2.4c0,1,0.3,1.8,0.9,2.4C210,230,210.7,230.3,211.6,230.3z"/>
		<path fill="#BB0E3D" d="M225.5,232.4l-1-2.3H220l-1,2.3h-2.6l4.7-10.8h2.3l4.7,10.8L225.5,232.4L225.5,232.4z M222.3,224.8
			l-1.4,3.1h2.7L222.3,224.8z"/>
		<path fill="#BB0E3D" d="M236.9,221.6h2.4v10.8h-2.4l-5.2-6.8v6.8h-2.4v-10.8h2.3l5.3,7V221.6z"/>
		<path fill="#BB0E3D" d="M247,230.3c1.2,0,2.2-0.5,2.9-1.4l1.5,1.6c-1.2,1.4-2.7,2.1-4.3,2.1c-1.7,0-3-0.5-4.1-1.6s-1.6-2.4-1.6-4
			c0-1.6,0.5-2.9,1.6-4c1.1-1.1,2.4-1.6,4-1.6c1.8,0,3.3,0.7,4.5,2l-1.5,1.7c-0.8-0.9-1.7-1.4-2.8-1.4c-0.9,0-1.7,0.3-2.3,0.9
			c-0.6,0.6-1,1.4-1,2.4c0,1,0.3,1.8,0.9,2.4C245.4,230,246.1,230.3,247,230.3z"/>
		<path fill="#BB0E3D" d="M261.1,221.6v2.2h-5.4v2.2h4.8v2.1h-4.8v2.2h5.6v2.1h-8v-10.8H261.1z"/>
		<path fill="#BB0E3D" d="M272.2,225.2c0,1.7-0.7,2.9-2.1,3.4l2.7,3.9h-3l-2.4-3.4h-1.7v3.4h-2.4v-10.8h4.1c1.7,0,2.9,0.3,3.6,0.9
			C271.9,223,272.2,224,272.2,225.2z M269.3,226.5c0.3-0.3,0.4-0.7,0.4-1.3c0-0.6-0.2-1-0.5-1.2c-0.3-0.2-0.9-0.3-1.6-0.3h-1.8v3.2
			h1.8C268.4,226.9,269,226.8,269.3,226.5z"/>
		<path fill="#BB0E3D" d="M278.8,221.6h2.4v10.8h-2.4V221.6z"/>
		<path fill="#BB0E3D" d="M291.4,221.6h2.4v10.8h-2.4l-5.2-6.8v6.8h-2.4v-10.8h2.3l5.3,7V221.6z"/>
		<path fill="#BB0E3D" d="M299,223.8c-0.2,0.2-0.3,0.4-0.3,0.8s0.1,0.6,0.4,0.8c0.3,0.2,0.9,0.4,2,0.7c1,0.3,1.8,0.6,2.4,1.1
			c0.6,0.5,0.9,1.2,0.9,2.2s-0.4,1.8-1.1,2.4c-0.7,0.6-1.7,0.9-2.9,0.9c-1.7,0-3.3-0.6-4.6-1.9l1.4-1.8c1.2,1,2.2,1.5,3.2,1.5
			c0.4,0,0.8-0.1,1-0.3c0.3-0.2,0.4-0.4,0.4-0.8c0-0.3-0.1-0.6-0.4-0.8c-0.3-0.2-0.8-0.4-1.6-0.6c-1.3-0.3-2.2-0.7-2.8-1.2
			c-0.6-0.5-0.9-1.2-0.9-2.3c0-1,0.4-1.8,1.1-2.4c0.7-0.6,1.7-0.8,2.8-0.8c0.7,0,1.4,0.1,2.2,0.4c0.7,0.2,1.4,0.6,1.9,1.1l-1.2,1.8
			c-0.9-0.7-1.9-1.1-2.9-1.1C299.6,223.5,299.2,223.6,299,223.8z"/>
		<path fill="#BB0E3D" d="M310.8,223.7v8.7h-2.4v-8.7h-3.1v-2.1h8.5v2.1H310.8z"/>
		<path fill="#BB0E3D" d="M315.7,221.6h2.4v10.8h-2.4V221.6z"/>
		<path fill="#BB0E3D" d="M325.3,223.7v8.7h-2.4v-8.7h-3.1v-2.1h8.5v2.1H325.3z"/>
		<path fill="#BB0E3D" d="M333,229.7c0.4,0.5,0.9,0.7,1.6,0.7s1.2-0.2,1.6-0.7c0.4-0.5,0.6-1.2,0.6-2v-6h2.4v6
			c0,1.6-0.4,2.8-1.3,3.6c-0.9,0.8-2,1.3-3.3,1.3s-2.5-0.4-3.3-1.3c-0.9-0.8-1.3-2-1.3-3.6v-6h2.4v6
			C332.4,228.5,332.6,229.2,333,229.7z"/>
		<path fill="#BB0E3D" d="M346.3,223.7v8.7h-2.4v-8.7h-3.1v-2.1h8.5v2.1H346.3z"/>
		<path fill="#BB0E3D" d="M359,221.6v2.2h-5.4v2.2h4.8v2.1h-4.8v2.2h5.6v2.1h-8v-10.8H359z"/>
	</g>
</g>
<g>
	<g>
		<path fill="#606060" d="M129.8,246.1c1.4,1.2,2,3,2,5.2s-0.7,4-2,5.2s-3.3,1.9-6,1.9h-4.9v-14.2h5
			C126.5,244.2,128.4,244.8,129.8,246.1z M127.4,254.5c0.8-0.7,1.2-1.8,1.2-3.2c0-1.4-0.4-2.5-1.2-3.2c-0.8-0.8-2-1.1-3.6-1.1h-1.8
			v8.6h2C125.5,255.6,126.7,255.2,127.4,254.5z"/>
		<path fill="#606060" d="M134.4,246.1c-0.3-0.3-0.5-0.8-0.5-1.3s0.2-0.9,0.5-1.3c0.3-0.3,0.8-0.5,1.3-0.5s0.9,0.2,1.3,0.5
			c0.3,0.3,0.5,0.8,0.5,1.3s-0.2,0.9-0.5,1.3c-0.3,0.3-0.8,0.5-1.3,0.5S134.7,246.4,134.4,246.1z M137.1,258.4h-3v-10.9h3V258.4z"/>
		<path fill="#606060" d="M143,258.4l-4.3-10.9h3.2l2.7,6.9l2.7-6.9h3.2l-4.3,10.9C146.1,258.4,143,258.4,143,258.4z"/>
		<path fill="#606060" d="M152.2,246.1c-0.3-0.3-0.5-0.8-0.5-1.3s0.2-0.9,0.5-1.3c0.3-0.3,0.8-0.5,1.3-0.5s0.9,0.2,1.3,0.5
			c0.3,0.3,0.5,0.8,0.5,1.3s-0.2,0.9-0.5,1.3c-0.3,0.3-0.8,0.5-1.3,0.5S152.5,246.4,152.2,246.1z M155,258.4h-3v-10.9h3V258.4z"/>
		<path fill="#606060" d="M166.1,255c0,1.1-0.4,1.9-1.2,2.6c-0.8,0.6-1.8,1-3,1c-0.8,0-1.7-0.1-2.5-0.4c-0.9-0.3-1.7-0.7-2.4-1.3
			l1.3-1.9c1.1,0.9,2.3,1.3,3.6,1.3c0.4,0,0.7-0.1,0.9-0.2c0.2-0.2,0.3-0.4,0.3-0.6c0-0.3-0.2-0.5-0.5-0.7c-0.3-0.2-0.8-0.4-1.4-0.6
			s-1.1-0.4-1.4-0.5c-0.3-0.1-0.7-0.3-1.1-0.6c-0.8-0.5-1.2-1.3-1.2-2.3c0-1,0.4-1.8,1.2-2.5c0.8-0.6,1.9-1,3.1-1
			c1.3,0,2.6,0.4,3.9,1.3l-1.1,2c-0.9-0.6-1.9-1-2.8-1c-0.9,0-1.4,0.3-1.4,0.8c0,0.3,0.1,0.5,0.4,0.7c0.3,0.2,0.8,0.4,1.5,0.6
			s1.2,0.4,1.5,0.5c0.3,0.1,0.6,0.3,1,0.5C165.7,253.1,166.1,253.9,166.1,255z"/>
		<path fill="#606060" d="M168.7,246.1c-0.3-0.3-0.5-0.8-0.5-1.3s0.2-0.9,0.5-1.3c0.3-0.3,0.8-0.5,1.3-0.5s0.9,0.2,1.3,0.5
			c0.3,0.3,0.5,0.8,0.5,1.3s-0.2,0.9-0.5,1.3c-0.3,0.3-0.8,0.5-1.3,0.5S169,246.4,168.7,246.1z M171.5,258.4h-3v-10.9h3V258.4z"/>
		<path fill="#606060" d="M185.3,252.9c0,1.6-0.5,2.9-1.6,4c-1.1,1.1-2.5,1.6-4.1,1.6s-3-0.5-4.1-1.6c-1.1-1.1-1.6-2.4-1.6-4
			c0-1.6,0.5-2.9,1.6-4c1.1-1.1,2.5-1.6,4.1-1.6s3,0.5,4.1,1.6C184.7,250,185.3,251.3,185.3,252.9z M176.8,252.9
			c0,0.9,0.3,1.6,0.8,2.2c0.5,0.6,1.2,0.8,1.9,0.8s1.4-0.3,1.9-0.8c0.5-0.6,0.8-1.3,0.8-2.2c0-0.9-0.3-1.6-0.8-2.2
			c-0.5-0.6-1.2-0.9-1.9-0.9s-1.4,0.3-1.9,0.9C177,251.3,176.8,252,176.8,252.9z"/>
		<path fill="#606060" d="M190.6,252.3v6.1h-3v-10.9h3v1.2c0.9-0.9,2-1.4,3.1-1.4s2.1,0.4,2.9,1.2c0.8,0.8,1.2,1.9,1.2,3.2v6.6h-3
			v-6.2c0-1.7-0.6-2.5-1.8-2.5c-0.6,0-1.1,0.2-1.6,0.7C190.8,250.8,190.6,251.4,190.6,252.3z"/>
		<path fill="#606060" d="M216.8,252.9c0,1.6-0.5,2.9-1.6,4c-1.1,1.1-2.5,1.6-4.1,1.6c-1.7,0-3-0.5-4.1-1.6c-1.1-1.1-1.6-2.4-1.6-4
			c0-1.6,0.5-2.9,1.6-4c1.1-1.1,2.5-1.6,4.1-1.6c1.7,0,3,0.5,4.1,1.6C216.2,250,216.8,251.3,216.8,252.9z M208.3,252.9
			c0,0.9,0.3,1.6,0.8,2.2s1.2,0.8,1.9,0.8c0.8,0,1.4-0.3,1.9-0.8s0.8-1.3,0.8-2.2c0-0.9-0.3-1.6-0.8-2.2c-0.5-0.6-1.2-0.9-1.9-0.9
			c-0.8,0-1.4,0.3-1.9,0.9C208.5,251.3,208.3,252,208.3,252.9z"/>
		<path fill="#606060" d="M222.5,246.8v0.7h2.6v2.2h-2.6v8.6h-3.1v-8.6h-1.3v-2.2h1.3v-0.7c0-1.2,0.4-2.1,1.1-2.8
			c0.7-0.7,1.6-1,2.7-1s2.1,0.4,2.9,1.2l-1.1,2.1c-0.4-0.5-0.9-0.8-1.5-0.8c-0.3,0-0.6,0.1-0.8,0.3
			C222.6,246.1,222.5,246.4,222.5,246.8z"/>
		<path fill="#606060" d="M239.2,255.6c1.6,0,2.8-0.6,3.8-1.8l2,2.1c-1.6,1.8-3.5,2.7-5.7,2.7c-2.2,0-4-0.7-5.4-2.1
			c-1.4-1.4-2.1-3.1-2.1-5.2c0-2.1,0.7-3.9,2.2-5.3s3.2-2.1,5.3-2.1c2.3,0,4.3,0.9,5.8,2.7l-2,2.2c-1-1.2-2.2-1.9-3.7-1.9
			c-1.2,0-2.2,0.4-3.1,1.2c-0.8,0.8-1.3,1.8-1.3,3.1c0,1.3,0.4,2.4,1.2,3.2S238,255.6,239.2,255.6z"/>
		<path fill="#606060" d="M256.4,258.4h-2.9v-1.3c-0.8,1-1.8,1.5-2.9,1.5c-1.2,0-2.1-0.3-2.9-1c-0.8-0.7-1.2-1.6-1.2-2.7
			s0.4-2,1.2-2.5c0.8-0.6,1.9-0.8,3.3-0.8h2.3v-0.1c0-1.2-0.6-1.7-1.8-1.7c-0.5,0-1.1,0.1-1.7,0.3c-0.6,0.2-1.1,0.5-1.5,0.8l-1.4-2
			c1.4-1,3.1-1.6,4.9-1.6c1.3,0,2.4,0.3,3.2,1c0.8,0.7,1.3,1.7,1.3,3.1L256.4,258.4L256.4,258.4z M253.3,254.2v-0.5h-1.9
			c-1.2,0-1.8,0.4-1.8,1.1c0,0.4,0.1,0.7,0.4,0.9c0.3,0.2,0.7,0.3,1.2,0.3s1-0.2,1.4-0.5C253.1,255.2,253.3,254.8,253.3,254.2z"/>
		<path fill="#606060" d="M262.2,252.3v6.1h-3v-10.9h3v1.2c0.9-0.9,2-1.4,3.1-1.4s2.1,0.4,2.9,1.2c0.8,0.8,1.2,1.9,1.2,3.2v6.6h-3
			v-6.2c0-1.7-0.6-2.5-1.8-2.5c-0.6,0-1.1,0.2-1.6,0.7C262.4,250.8,262.2,251.4,262.2,252.3z"/>
		<path fill="#606060" d="M277.4,255.9c1,0,1.9-0.5,2.7-1.5l1.8,2c-1.4,1.5-2.9,2.2-4.6,2.2s-3-0.5-4.2-1.6c-1.1-1-1.7-2.4-1.7-4.1
			s0.6-3,1.7-4.1c1.1-1,2.5-1.6,4.1-1.6c0.8,0,1.6,0.2,2.4,0.5c0.8,0.3,1.5,0.8,2.1,1.4l-1.6,2.1c-0.4-0.4-0.8-0.7-1.3-1
			c-0.5-0.2-1-0.3-1.5-0.3c-0.8,0-1.5,0.3-2.1,0.8s-0.9,1.2-0.9,2.2c0,0.9,0.3,1.6,0.9,2.2C275.9,255.6,276.6,255.9,277.4,255.9z"/>
		<path fill="#606060" d="M293.4,256.8c-1.2,1.2-2.7,1.7-4.3,1.7c-1.7,0-3-0.5-4.1-1.5c-1.1-1-1.6-2.4-1.6-4.1
			c0-1.7,0.6-3.1,1.7-4.1c1.1-1,2.4-1.5,3.9-1.5s2.8,0.5,3.8,1.4c1,0.9,1.6,2.2,1.6,3.7v1.6h-8c0.1,0.6,0.4,1.1,0.9,1.5
			c0.5,0.4,1.1,0.6,1.8,0.6c1.1,0,1.9-0.4,2.6-1.1L293.4,256.8z M290.5,250.3c-0.4-0.4-0.9-0.5-1.5-0.5c-0.6,0-1.2,0.2-1.7,0.5
			c-0.5,0.4-0.8,0.9-0.9,1.5h4.8C291.1,251.2,290.9,250.7,290.5,250.3z"/>
		<path fill="#606060" d="M302.2,250.1c-0.9,0-1.6,0.3-2,1s-0.7,1.5-0.7,2.5v4.7h-3v-10.9h3v1.4c0.4-0.4,0.9-0.8,1.5-1.1
			c0.6-0.3,1.2-0.5,1.8-0.5l0,2.9L302.2,250.1L302.2,250.1z"/>
		<path fill="#606060" d="M317,255.6c1.6,0,2.8-0.6,3.8-1.8l2,2.1c-1.6,1.8-3.5,2.7-5.7,2.7s-4-0.7-5.4-2.1
			c-1.4-1.4-2.1-3.1-2.1-5.2c0-2.1,0.7-3.9,2.2-5.3c1.4-1.4,3.2-2.1,5.3-2.1c2.3,0,4.3,0.9,5.8,2.7l-2,2.2c-1-1.2-2.2-1.9-3.7-1.9
			c-1.2,0-2.2,0.4-3.1,1.2c-0.8,0.8-1.3,1.8-1.3,3.1c0,1.3,0.4,2.4,1.2,3.2C314.9,255.2,315.9,255.6,317,255.6z"/>
		<path fill="#606060" d="M335.6,252.9c0,1.6-0.5,2.9-1.6,4c-1.1,1.1-2.5,1.6-4.1,1.6s-3-0.5-4.1-1.6c-1.1-1.1-1.6-2.4-1.6-4
			c0-1.6,0.5-2.9,1.6-4c1.1-1.1,2.5-1.6,4.1-1.6s3,0.5,4.1,1.6C335,250,335.6,251.3,335.6,252.9z M327.1,252.9
			c0,0.9,0.3,1.6,0.8,2.2c0.5,0.6,1.2,0.8,1.9,0.8s1.4-0.3,1.9-0.8c0.5-0.6,0.8-1.3,0.8-2.2c0-0.9-0.3-1.6-0.8-2.2
			c-0.5-0.6-1.2-0.9-1.9-0.9s-1.4,0.3-1.9,0.9C327.3,251.3,327.1,252,327.1,252.9z"/>
		<path fill="#606060" d="M340.9,252.3v6.1h-3v-10.9h3v1.2c0.9-0.9,2-1.4,3.1-1.4s2.1,0.4,2.9,1.2c0.8,0.8,1.2,1.9,1.2,3.2v6.6h-3
			v-6.2c0-1.7-0.6-2.5-1.8-2.5c-0.6,0-1.1,0.2-1.6,0.7C341.1,250.8,340.9,251.4,340.9,252.3z"/>
		<path fill="#606060" d="M354.3,249.7v4.9c0,0.4,0.1,0.7,0.3,1c0.2,0.2,0.5,0.4,0.8,0.4c0.6,0,1-0.3,1.4-0.8l1.1,2.1
			c-0.9,0.9-1.9,1.3-3,1.3c-1,0-1.9-0.3-2.7-1c-0.7-0.7-1.1-1.6-1.1-2.8v-5h-1.3v-2.2h1.3v-3.3h3.1v3.3h2.6v2.2H354.3z"/>
		<path fill="#606060" d="M365.3,250.1c-0.9,0-1.6,0.3-2,1s-0.7,1.5-0.7,2.5v4.7h-3v-10.9h3v1.4c0.4-0.4,0.9-0.8,1.5-1.1
			c0.6-0.3,1.2-0.5,1.8-0.5l0,2.9L365.3,250.1L365.3,250.1z"/>
		<path fill="#606060" d="M378.7,252.9c0,1.6-0.5,2.9-1.6,4c-1.1,1.1-2.5,1.6-4.1,1.6c-1.7,0-3-0.5-4.1-1.6c-1.1-1.1-1.6-2.4-1.6-4
			c0-1.6,0.5-2.9,1.6-4c1.1-1.1,2.5-1.6,4.1-1.6c1.7,0,3,0.5,4.1,1.6C378.1,250,378.7,251.3,378.7,252.9z M370.2,252.9
			c0,0.9,0.3,1.6,0.8,2.2s1.2,0.8,1.9,0.8s1.4-0.3,1.9-0.8c0.5-0.6,0.8-1.3,0.8-2.2c0-0.9-0.3-1.6-0.8-2.2c-0.5-0.6-1.2-0.9-1.9-0.9
			s-1.4,0.3-1.9,0.9C370.4,251.3,370.2,252,370.2,252.9z"/>
		<path fill="#606060" d="M384,258.4h-3v-15.1h3V258.4z"/>
		<path fill="#606060" d="M400.8,257.2c-1.1,0.9-2.5,1.4-3.9,1.4c-1.5,0-2.7-0.4-3.7-1.1c-1-0.8-1.4-1.8-1.4-3.1c0-1.5,1-2.8,3-4
			c-0.4-0.5-0.8-1-1-1.4c-0.2-0.4-0.3-0.9-0.3-1.5c0-1.1,0.4-2,1.2-2.6c0.8-0.6,1.8-0.9,3-0.9c1.1,0,2.1,0.3,2.9,0.9
			s1.2,1.4,1.2,2.5c0,1.3-1,2.6-2.9,3.7c0.8,0.9,1.3,1.6,1.7,2c0.3-0.6,0.6-1.3,0.8-2l2.4,1.7c-0.3,0.9-0.7,1.6-1.1,2.4l2,2l-2,1.9
			L400.8,257.2z M395.3,255.5c0.4,0.3,0.9,0.5,1.5,0.5s1.3-0.3,2-0.9c-1-1-1.8-2-2.6-2.8c-1,0.6-1.6,1.3-1.6,2.1
			C394.7,254.8,394.9,255.2,395.3,255.5z M397.6,246.3c-0.3,0-0.6,0.1-0.8,0.3c-0.2,0.2-0.4,0.5-0.4,0.9s0.3,0.9,0.8,1.6
			c1-0.5,1.5-1,1.5-1.5c0-0.4-0.1-0.7-0.4-0.9C398.2,246.4,397.9,246.3,397.6,246.3z"/>
		<path fill="#606060" d="M421.8,245.5c1,0.8,1.5,2.1,1.5,3.9c0,1.8-0.5,3-1.5,3.8c-1,0.8-2.6,1.2-4.7,1.2h-1.9v4h-3.2v-14.2h5
			C419.3,244.2,420.9,244.6,421.8,245.5z M419.5,251c0.4-0.4,0.6-1,0.6-1.9s-0.2-1.4-0.7-1.7c-0.5-0.3-1.3-0.5-2.3-0.5h-1.8v4.8h2.1
			C418.4,251.7,419.1,251.5,419.5,251z"/>
		<path fill="#606060" d="M436.3,252.9c0,1.6-0.5,2.9-1.6,4c-1.1,1.1-2.5,1.6-4.1,1.6c-1.7,0-3-0.5-4.1-1.6c-1.1-1.1-1.6-2.4-1.6-4
			c0-1.6,0.5-2.9,1.6-4c1.1-1.1,2.5-1.6,4.1-1.6c1.7,0,3,0.5,4.1,1.6C435.7,250,436.3,251.3,436.3,252.9z M427.8,252.9
			c0,0.9,0.3,1.6,0.8,2.2c0.5,0.6,1.2,0.8,1.9,0.8s1.4-0.3,1.9-0.8c0.5-0.6,0.8-1.3,0.8-2.2c0-0.9-0.3-1.6-0.8-2.2
			c-0.5-0.6-1.2-0.9-1.9-0.9s-1.4,0.3-1.9,0.9C428.1,251.3,427.8,252,427.8,252.9z"/>
		<path fill="#606060" d="M444.9,247.3c1.3,0,2.4,0.5,3.4,1.6c1,1.1,1.5,2.4,1.5,4c0,1.6-0.5,3-1.5,4c-1,1.1-2.2,1.6-3.5,1.6
			c-1.3,0-2.4-0.5-3.2-1.6v5.4h-3v-14.9h3v1.2C442.5,247.7,443.6,247.3,444.9,247.3z M441.6,252.9c0,0.9,0.2,1.6,0.7,2.2
			c0.5,0.6,1.1,0.8,1.8,0.8c0.7,0,1.3-0.3,1.8-0.8c0.5-0.6,0.8-1.3,0.8-2.2s-0.3-1.6-0.8-2.2c-0.5-0.6-1.1-0.9-1.8-0.9
			s-1.3,0.3-1.8,0.9C441.8,251.3,441.6,252,441.6,252.9z"/>
		<path fill="#606060" d="M459.1,253.4v-5.9h3.1v10.9h-3.1v-1.4c-0.8,1.1-1.7,1.6-2.9,1.6c-1.2,0-2.2-0.4-3-1.1
			c-0.8-0.8-1.2-1.9-1.2-3.3v-6.6h3.1v5.9c0,1.7,0.6,2.5,1.8,2.5c0.6,0,1.1-0.2,1.6-0.7S459.1,254.2,459.1,253.4z"/>
		<path fill="#606060" d="M468.1,258.4h-3v-15.1h3V258.4z"/>
		<path fill="#606060" d="M480.3,258.4h-2.9v-1.3c-0.8,1-1.8,1.5-2.9,1.5s-2.1-0.3-2.9-1c-0.8-0.7-1.2-1.6-1.2-2.7s0.4-2,1.2-2.5
			c0.8-0.6,1.9-0.8,3.3-0.8h2.3v-0.1c0-1.2-0.6-1.7-1.8-1.7c-0.5,0-1.1,0.1-1.7,0.3c-0.6,0.2-1.1,0.5-1.5,0.8l-1.4-2
			c1.4-1,3.1-1.6,4.9-1.6c1.3,0,2.4,0.3,3.2,1c0.8,0.7,1.3,1.7,1.3,3.1L480.3,258.4L480.3,258.4z M477.2,254.2v-0.5h-1.9
			c-1.2,0-1.8,0.4-1.8,1.1c0,0.4,0.1,0.7,0.4,0.9c0.3,0.2,0.7,0.3,1.2,0.3s1-0.2,1.4-0.5C477,255.2,477.2,254.8,477.2,254.2z"/>
		<path fill="#606060" d="M486.6,249.7v4.9c0,0.4,0.1,0.7,0.3,1s0.5,0.4,0.8,0.4c0.6,0,1-0.3,1.4-0.8l1.1,2.1
			c-0.9,0.9-1.9,1.3-3,1.3c-1,0-1.9-0.3-2.7-1c-0.7-0.7-1.1-1.6-1.1-2.8v-5h-1.3v-2.2h1.3v-3.3h3.1v3.3h2.6v2.2H486.6z"/>
		<path fill="#606060" d="M492.1,246.1c-0.3-0.3-0.5-0.8-0.5-1.3s0.2-0.9,0.5-1.3c0.3-0.3,0.8-0.5,1.3-0.5c0.5,0,0.9,0.2,1.3,0.5
			c0.3,0.3,0.5,0.8,0.5,1.3s-0.2,0.9-0.5,1.3c-0.3,0.3-0.8,0.5-1.3,0.5C492.9,246.6,492.5,246.4,492.1,246.1z M494.9,258.4h-3v-10.9
			h3V258.4z"/>
		<path fill="#606060" d="M508.7,252.9c0,1.6-0.5,2.9-1.6,4c-1.1,1.1-2.5,1.6-4.1,1.6c-1.7,0-3-0.5-4.1-1.6c-1.1-1.1-1.6-2.4-1.6-4
			c0-1.6,0.5-2.9,1.6-4c1.1-1.1,2.5-1.6,4.1-1.6c1.7,0,3,0.5,4.1,1.6C508.2,250,508.7,251.3,508.7,252.9z M500.2,252.9
			c0,0.9,0.3,1.6,0.8,2.2c0.5,0.6,1.2,0.8,1.9,0.8s1.4-0.3,1.9-0.8c0.5-0.6,0.8-1.3,0.8-2.2c0-0.9-0.3-1.6-0.8-2.2
			c-0.5-0.6-1.2-0.9-1.9-0.9s-1.4,0.3-1.9,0.9C500.5,251.3,500.2,252,500.2,252.9z"/>
		<path fill="#606060" d="M514,252.3v6.1h-3v-10.9h3v1.2c0.9-0.9,2-1.4,3.1-1.4s2.1,0.4,2.9,1.2c0.8,0.8,1.2,1.9,1.2,3.2v6.6h-3
			v-6.2c0-1.7-0.6-2.5-1.8-2.5c-0.6,0-1.1,0.2-1.6,0.7C514.2,250.8,514,251.4,514,252.3z"/>
		<path fill="#606060" d="M532.9,247c-0.3,0.3-0.5,0.6-0.5,1c0,0.4,0.2,0.7,0.6,1c0.4,0.2,1.2,0.5,2.6,0.9c1.3,0.3,2.4,0.8,3.1,1.5
			c0.7,0.7,1.1,1.6,1.1,2.9c0,1.3-0.5,2.3-1.4,3.1c-1,0.8-2.2,1.2-3.8,1.2c-2.2,0-4.3-0.8-6.1-2.5l1.9-2.3c1.5,1.3,2.9,2,4.2,2
			c0.6,0,1-0.1,1.4-0.4c0.3-0.3,0.5-0.6,0.5-1c0-0.4-0.2-0.8-0.5-1c-0.4-0.3-1-0.5-2.1-0.8c-1.7-0.4-2.9-0.9-3.6-1.5
			c-0.8-0.6-1.1-1.6-1.1-3c0-1.3,0.5-2.4,1.5-3.1c1-0.7,2.2-1.1,3.6-1.1c0.9,0,1.9,0.2,2.8,0.5c0.9,0.3,1.8,0.8,2.5,1.4l-1.6,2.3
			c-1.2-0.9-2.5-1.4-3.8-1.4C533.6,246.7,533.2,246.8,532.9,247z"/>
		<path fill="#606060" d="M547.5,255.9c1,0,1.9-0.5,2.7-1.5l1.8,2c-1.4,1.5-2.9,2.2-4.6,2.2c-1.6,0-3-0.5-4.2-1.6
			c-1.1-1-1.7-2.4-1.7-4.1s0.6-3,1.7-4.1c1.1-1,2.5-1.6,4.1-1.6c0.8,0,1.6,0.2,2.4,0.5c0.8,0.3,1.5,0.8,2.1,1.4l-1.6,2.1
			c-0.4-0.4-0.8-0.7-1.3-1c-0.5-0.2-1-0.3-1.5-0.3c-0.8,0-1.5,0.3-2.1,0.8s-0.9,1.2-0.9,2.2c0,0.9,0.3,1.6,0.9,2.2
			C546,255.6,546.7,255.9,547.5,255.9z"/>
		<path fill="#606060" d="M554.3,246.1c-0.3-0.3-0.5-0.8-0.5-1.3s0.2-0.9,0.5-1.3c0.3-0.3,0.8-0.5,1.3-0.5s0.9,0.2,1.3,0.5
			c0.3,0.3,0.5,0.8,0.5,1.3s-0.2,0.9-0.5,1.3c-0.3,0.3-0.8,0.5-1.3,0.5C555.1,246.6,554.7,246.4,554.3,246.1z M557.1,258.4h-3v-10.9
			h3V258.4z"/>
		<path fill="#606060" d="M569.5,256.8c-1.2,1.2-2.7,1.7-4.3,1.7c-1.7,0-3-0.5-4.1-1.5c-1.1-1-1.6-2.4-1.6-4.1
			c0-1.7,0.6-3.1,1.7-4.1c1.1-1,2.4-1.5,3.9-1.5c1.5,0,2.8,0.5,3.8,1.4c1,0.9,1.6,2.2,1.6,3.7v1.6h-8c0.1,0.6,0.4,1.1,0.9,1.5
			c0.5,0.4,1.1,0.6,1.8,0.6c1.1,0,1.9-0.4,2.6-1.1L569.5,256.8z M566.5,250.3c-0.4-0.4-0.9-0.5-1.5-0.5c-0.6,0-1.2,0.2-1.7,0.5
			c-0.5,0.4-0.8,0.9-0.9,1.5h4.8C567.2,251.2,566.9,250.7,566.5,250.3z"/>
		<path fill="#606060" d="M575.6,252.3v6.1h-3v-10.9h3v1.2c0.9-0.9,2-1.4,3.1-1.4s2.1,0.4,2.9,1.2c0.8,0.8,1.2,1.9,1.2,3.2v6.6h-3
			v-6.2c0-1.7-0.6-2.5-1.8-2.5c-0.6,0-1.1,0.2-1.6,0.7C575.8,250.8,575.6,251.4,575.6,252.3z"/>
		<path fill="#606060" d="M590.7,255.9c1,0,1.9-0.5,2.7-1.5l1.8,2c-1.4,1.5-2.9,2.2-4.6,2.2c-1.6,0-3-0.5-4.2-1.6
			c-1.1-1-1.7-2.4-1.7-4.1s0.6-3,1.7-4.1c1.1-1,2.5-1.6,4.1-1.6c0.8,0,1.6,0.2,2.4,0.5c0.8,0.3,1.5,0.8,2.1,1.4l-1.6,2.1
			c-0.4-0.4-0.8-0.7-1.3-1c-0.5-0.2-1-0.3-1.5-0.3c-0.8,0-1.5,0.3-2.1,0.8s-0.9,1.2-0.9,2.2c0,0.9,0.3,1.6,0.9,2.2
			C589.3,255.6,590,255.9,590.7,255.9z"/>
		<path fill="#606060" d="M606.8,256.8c-1.2,1.2-2.7,1.7-4.3,1.7c-1.7,0-3-0.5-4.1-1.5c-1.1-1-1.6-2.4-1.6-4.1
			c0-1.7,0.6-3.1,1.7-4.1c1.1-1,2.4-1.5,3.9-1.5c1.5,0,2.8,0.5,3.8,1.4c1,0.9,1.6,2.2,1.6,3.7v1.6h-8c0.1,0.6,0.4,1.1,0.9,1.5
			c0.5,0.4,1.1,0.6,1.8,0.6c1.1,0,1.9-0.4,2.6-1.1L606.8,256.8z M603.9,250.3c-0.4-0.4-0.9-0.5-1.5-0.5c-0.6,0-1.2,0.2-1.7,0.5
			c-0.5,0.4-0.8,0.9-0.9,1.5h4.8C604.5,251.2,604.3,250.7,603.9,250.3z"/>
		<path fill="#606060" d="M618.1,255c0,1.1-0.4,1.9-1.2,2.6c-0.8,0.6-1.8,1-3,1c-0.8,0-1.7-0.1-2.5-0.4c-0.9-0.3-1.7-0.7-2.4-1.3
			l1.3-1.9c1.1,0.9,2.3,1.3,3.6,1.3c0.4,0,0.7-0.1,0.9-0.2c0.2-0.2,0.3-0.4,0.3-0.6c0-0.3-0.2-0.5-0.5-0.7s-0.8-0.4-1.4-0.6
			c-0.6-0.2-1.1-0.4-1.4-0.5c-0.3-0.1-0.7-0.3-1.1-0.6c-0.8-0.5-1.2-1.3-1.2-2.3c0-1,0.4-1.8,1.2-2.5c0.8-0.6,1.9-1,3.1-1
			s2.6,0.4,3.9,1.3l-1.1,2c-0.9-0.6-1.9-1-2.8-1c-0.9,0-1.4,0.3-1.4,0.8c0,0.3,0.1,0.5,0.4,0.7c0.3,0.2,0.8,0.4,1.5,0.6
			c0.7,0.2,1.2,0.4,1.5,0.5c0.3,0.1,0.6,0.3,1,0.5C617.7,253.1,618.1,253.9,618.1,255z"/>
	</g>
</g>
</svg>
